<svg width="64" height="64" viewBox="0 0 64 64" fill="none" xmlns="http://www.w3.org/2000/svg">
<path d="M30.9474 20.0905C29.1579 16.5695 26 9.63098 26 7.2491C26 4.03875 28.7368 1.34619 32 1.34619C35.3684 1.34619 38 4.03875 38 7.2491C38 9.63098 34.8421 16.5695 33.0526 20.0905" stroke="white" stroke-width="1.5" stroke-miterlimit="10" stroke-linecap="round" stroke-linejoin="round"/>
<path d="M20.3159 9.4239C23.3685 10.7702 31.6843 21.2297 31.6843 21.2297C31.6843 21.2297 18.2106 21.5404 15.158 20.1941C12.1054 18.8479 10.8422 15.3268 12.2106 12.3236C13.7896 9.32034 17.3685 8.07763 20.3159 9.4239Z" stroke="white" stroke-width="1.5" stroke-miterlimit="10" stroke-linecap="round" stroke-linejoin="round"/>
<path d="M43.5789 9.4239C40.5262 10.7702 32.2104 21.2297 32.2104 21.2297C32.2104 21.2297 45.6841 21.5404 48.7368 20.1941C51.7894 18.8479 53.0525 15.3268 51.6841 12.3236C50.2104 9.32034 46.6315 8.07763 43.5789 9.4239Z" stroke="white" stroke-width="1.5" stroke-miterlimit="10" stroke-linecap="round" stroke-linejoin="round"/>
<path d="M7.15771 38.2134V62.6535H56.8419V38.2134" stroke="white" stroke-width="1.5" stroke-miterlimit="10" stroke-linejoin="round"/>
<path d="M36.3158 33.2424H60.6316V21.2295H3.26318V33.2424H27.0527" stroke="white" stroke-width="1.5" stroke-miterlimit="10" stroke-linejoin="round"/>
<path d="M27.7896 21.644V62.6538" stroke="white" stroke-width="1.5" stroke-miterlimit="10" stroke-linejoin="round"/>
<path d="M36.2104 21.644V62.6538" stroke="white" stroke-width="1.5" stroke-miterlimit="10" stroke-linejoin="round"/>
</svg>
