<svg width="32" height="32" viewBox="0 0 32 32" fill="none" xmlns="http://www.w3.org/2000/svg">
<path fill-rule="evenodd" clip-rule="evenodd" d="M1.5 2C1.5 1.72386 1.72386 1.5 2 1.5H30C30.2761 1.5 30.5 1.72386 30.5 2C30.5 2.27614 30.2761 2.5 30 2.5H2C1.72386 2.5 1.5 2.27614 1.5 2ZM1.5 30C1.5 29.7239 1.72386 29.5 2 29.5H30C30.2761 29.5 30.5 29.7239 30.5 30C30.5 30.2761 30.2761 30.5 30 30.5H2C1.72386 30.5 1.5 30.2761 1.5 30ZM10 15.5C9.72386 15.5 9.5 15.7239 9.5 16C9.5 16.2761 9.72386 16.5 10 16.5H30C30.2761 16.5 30.5 16.2761 30.5 16C30.5 15.7239 30.2761 15.5 30 15.5H10Z" fill="#009DE8"/>
</svg>
