<svg width="64" height="40" viewBox="0 0 64 40" fill="none" xmlns="http://www.w3.org/2000/svg">
<path d="M47.3847 29.5693H54.8572" stroke="white" stroke-width="1.5" stroke-miterlimit="10"/>
<path d="M24.3518 38.7933C23.2968 39.0519 20.9232 39.1381 19.4287 36.6381L13.099 26.0347H9.31879" stroke="white" stroke-width="1.5" stroke-miterlimit="10"/>
<path d="M30.5054 27.8452L34.2856 34.4831" stroke="white" stroke-width="1.5" stroke-miterlimit="10" stroke-linecap="round"/>
<path d="M25.0551 32.2417L27.5167 36.3796" stroke="white" stroke-width="1.5" stroke-miterlimit="10" stroke-linecap="round"/>
<path d="M39.1208 36.0346C38.0659 36.4657 35.956 37.3277 34.1977 34.4829" stroke="white" stroke-width="1.5" stroke-miterlimit="10"/>
<path d="M31.4726 37.8449C31.4726 37.8449 29.1869 39.3966 27.5165 36.3794" stroke="white" stroke-width="1.5" stroke-miterlimit="10"/>
<path d="M9.31879 4.56934H21.7144" stroke="white" stroke-width="1.5" stroke-miterlimit="10"/>
<path d="M0.0879121 1.03467H9.05495V30.0002H0" stroke="white" stroke-width="1.5" stroke-miterlimit="10"/>
<path d="M63.9123 3.53467H54.9453V32.5002H64.0002" stroke="white" stroke-width="1.5" stroke-miterlimit="10"/>
<path d="M48.0877 30.7761L37.8899 11.8106C37.0108 11.7244 32.6152 11.3796 32.6152 11.3796L26.7251 17.2417C21.7141 21.0348 18.9888 15.4313 18.9888 15.4313L26.7251 5.60372C29.2745 2.41406 31.9119 2.41406 31.9119 2.41406H43.5163L54.8569 7.24165" stroke="white" stroke-width="1.5" stroke-miterlimit="10"/>
<path d="M48.7911 30.0005C48.3516 31.2936 45.3626 38.7936 41.5824 32.2419L36.3076 24.0522" stroke="white" stroke-width="1.5" stroke-miterlimit="10" stroke-linecap="round"/>
</svg>
