<svg width="188" height="24" viewBox="0 0 188 24" fill="none" xmlns="http://www.w3.org/2000/svg">
<path fill-rule="evenodd" clip-rule="evenodd" d="M77.226 12.1867V5.50114H82.6319C85.1806 5.50114 86.3299 7.06198 86.3299 8.84358C86.3299 10.6266 85.1806 12.1867 82.6319 12.1867H77.226ZM85.3679 14.8598C87.9772 14.0325 89.9364 11.741 89.9364 8.84358C89.9364 4.92914 87.263 2 82.9115 2H73.6203V21.9905H77.226V15.6872H81.6382C81.6382 15.6872 84.7412 20.4473 84.7474 20.4586C85.7384 21.8544 87.8573 22.6048 90.2104 21.9587C90.2125 21.9587 85.3679 14.8598 85.3679 14.8598Z" fill="#003669"/>
<path fill-rule="evenodd" clip-rule="evenodd" d="M97.0957 18.4908H100.715C104.912 18.4908 107.583 15.5306 107.583 11.997C107.583 8.46272 104.912 5.50184 100.715 5.50184H97.0957V18.4908ZM93.4906 2H100.715C107.303 2 111.19 6.71144 111.19 11.997C111.19 17.2819 107.148 21.9933 100.715 21.9933H93.4906V2Z" fill="#003669"/>
<path fill-rule="evenodd" clip-rule="evenodd" d="M157.741 18.9026C161.147 18.9026 164.224 15.8783 164.224 11.9963C164.224 8.11214 161.147 5.08849 157.741 5.08849C154.334 5.08849 151.256 8.11214 151.256 11.9963C151.256 15.8783 154.334 18.9026 157.741 18.9026ZM157.741 1.58594C163.41 1.58594 167.905 6.13798 167.905 11.9963C167.905 17.8524 163.41 22.4045 157.741 22.4045C152.073 22.4045 147.579 17.8524 147.579 11.9963C147.579 6.13798 152.073 1.58594 157.741 1.58594Z" fill="#003669"/>
<path fill-rule="evenodd" clip-rule="evenodd" d="M60.8868 18.9026C64.2962 18.9026 67.371 15.8783 67.371 11.9963C67.371 8.11214 64.2962 5.08849 60.8868 5.08849C57.48 5.08849 54.4052 8.11214 54.4052 11.9963C54.4052 15.8783 57.48 18.9026 60.8868 18.9026ZM60.8868 1.58594C66.5578 1.58594 71.0512 6.13798 71.0512 11.9963C71.0512 17.8524 66.5578 22.4045 60.8868 22.4045C55.2178 22.4045 50.7244 17.8524 50.7244 11.9963C50.7244 6.13798 55.2178 1.58594 60.8868 1.58594Z" fill="#003669"/>
<path fill-rule="evenodd" clip-rule="evenodd" d="M142.832 17.8318C142.746 17.8854 141.386 18.9046 139.478 18.9046C136.059 18.9046 132.971 15.8802 132.971 11.9982C132.971 8.11409 136.059 5.09044 139.478 5.09044C141.424 5.09044 142.77 6.12724 142.77 6.12724C144.658 7.34601 147.025 6.27042 147.567 5.72169C145.287 2.82852 142.505 1.58789 139.478 1.58789C133.788 1.58789 129.276 6.13994 129.276 11.9982C129.276 17.8544 133.788 22.4064 139.478 22.4064C142.505 22.4064 145.45 21.0543 147.567 18.274C147.156 17.8374 144.743 16.5926 142.832 17.8318Z" fill="#003669"/>
<path fill-rule="evenodd" clip-rule="evenodd" d="M129.374 21.9903C129.374 20.0627 127.596 18.4885 125.714 18.4885H117.748V13.4921H125.926V9.99024H117.748V5.50237H125.743C127.61 5.48615 129.336 3.92037 129.374 2.00264C129.374 1.99841 114.141 2.00053 114.141 2.00053V21.9903C114.141 21.9903 129.374 21.996 129.374 21.9903Z" fill="#003669"/>
<path fill-rule="evenodd" clip-rule="evenodd" d="M48.2919 2.00125H44.6786V14.8667C44.6786 14.8667 34.5176 3.17771 34.5156 3.17629C33.4454 2.01607 32.2217 1.66482 31.2342 1.57031L31.2328 21.9903H34.8454V9.12344C34.8454 9.12344 45.0064 20.8118 45.0078 20.8139C45.967 21.9198 47.3023 22.3261 48.2898 22.4206L48.2919 2.00125Z" fill="#003669"/>
<path fill-rule="evenodd" clip-rule="evenodd" d="M187.398 2.00125H183.787V14.8667C183.787 14.8667 173.624 3.17771 173.624 3.17629C172.552 2.01607 171.331 1.66482 170.341 1.57031V21.9903H173.952V9.12344C173.952 9.12344 184.114 20.8118 184.114 20.8139C185.074 21.9198 186.409 22.3261 187.398 22.4206V2.00125Z" fill="#003669"/>
<path fill-rule="evenodd" clip-rule="evenodd" d="M3.43043 3.51348C8.0051 -1.17116 15.4211 -1.17116 19.9944 3.51348C24.5684 8.19812 24.5684 15.7922 19.9944 20.4782C15.4211 25.1629 8.00509 25.1629 3.43112 20.4782C-1.14355 15.7922 -1.14355 8.19812 3.43043 3.51348Z" fill="#003669"/>
<path fill-rule="evenodd" clip-rule="evenodd" d="M3.44958 3.5335C7.99946 -1.12575 15.3755 -1.12575 19.9254 3.5335C24.4746 8.19275 24.4746 15.7466 19.9254 20.4072C15.3755 25.0679 7.99946 25.0679 3.45027 20.4072C-1.10029 15.7466 -1.10029 8.19275 3.44958 3.5335Z" fill="#003669"/>
<path fill-rule="evenodd" clip-rule="evenodd" d="M3.46877 3.55157C7.99454 -1.08229 15.3314 -1.08229 19.8558 3.55157C24.3808 8.18613 24.3808 15.6998 19.8558 20.335C15.3314 24.9703 7.99454 24.9703 3.46946 20.335C-1.05631 15.6998 -1.05631 8.18613 3.46877 3.55157Z" fill="#00376A"/>
<path fill-rule="evenodd" clip-rule="evenodd" d="M3.48814 3.57212C7.98912 -1.03706 15.2867 -1.03706 19.787 3.57212C24.2873 8.18129 24.2873 15.654 19.787 20.2646C15.2867 24.8752 7.98912 24.8752 3.48883 20.2646C-1.01284 15.654 -1.01284 8.18129 3.48814 3.57212Z" fill="#00386B"/>
<path fill-rule="evenodd" clip-rule="evenodd" d="M3.5069 3.59071C7.98309 -0.993779 15.2414 -0.993779 19.7176 3.59071C24.1938 8.1752 24.1938 15.6077 19.7176 20.1929C15.2414 24.7781 7.98378 24.7781 3.50759 20.1929C-0.969292 15.6077 -0.969293 8.1752 3.5069 3.59071Z" fill="#00386B"/>
<path fill-rule="evenodd" clip-rule="evenodd" d="M3.52666 3.60878C7.97875 -0.950322 15.1971 -0.950322 19.6485 3.60878C24.0999 8.16858 24.0999 15.5602 19.6485 20.1207C15.1971 24.6805 7.97875 24.6805 3.52735 20.1207C-0.925425 15.5602 -0.925425 8.16858 3.52666 3.60878Z" fill="#00396C"/>
<path fill-rule="evenodd" clip-rule="evenodd" d="M3.54435 3.62933C7.97165 -0.905088 15.1508 -0.905088 19.5781 3.62933C24.0054 8.16374 24.0054 15.5151 19.5781 20.051C15.1508 24.5861 7.97165 24.5861 3.54504 20.051C-0.883632 15.5151 -0.883632 8.16374 3.54435 3.62933Z" fill="#003A6D"/>
<path fill-rule="evenodd" clip-rule="evenodd" d="M3.56314 3.64792C7.96634 -0.861807 15.1055 -0.861807 19.5087 3.64792C23.9112 8.15765 23.9112 15.4681 19.5087 19.9786C15.1055 24.4883 7.96634 24.4883 3.56383 19.9786C-0.840051 15.4681 -0.840051 8.15765 3.56314 3.64792Z" fill="#003A6D"/>
<path fill-rule="evenodd" clip-rule="evenodd" d="M3.58266 3.66794C7.96107 -0.816396 15.061 -0.816396 19.4394 3.66794C23.8178 8.15228 23.8178 15.4233 19.4394 19.9083C15.061 24.3934 7.96107 24.3934 3.58335 19.9083C-0.796428 15.4233 -0.796428 8.15228 3.58266 3.66794Z" fill="#003B6E"/>
<path fill-rule="evenodd" clip-rule="evenodd" d="M3.60133 3.68653C7.95563 -0.773116 15.0156 -0.773116 19.3699 3.68653C23.7242 8.14618 23.7242 15.3756 19.3699 19.8359C15.0156 24.2963 7.95563 24.2963 3.60202 19.8359C-0.752968 15.3756 -0.752968 8.14618 3.60133 3.68653Z" fill="#003C6F"/>
<path fill-rule="evenodd" clip-rule="evenodd" d="M3.62064 3.70655C7.95084 -0.727705 14.9709 -0.727705 19.3011 3.70655C23.6306 8.14081 23.6306 15.33 19.3011 19.7657C14.9709 24.2006 7.95084 24.2006 3.62133 19.7657C-0.709558 15.33 -0.709558 8.14081 3.62064 3.70655Z" fill="#003C6F"/>
<path fill-rule="evenodd" clip-rule="evenodd" d="M3.63949 3.72462C7.9449 -0.684249 14.9264 -0.684249 19.2311 3.72462C23.5365 8.13419 23.5365 15.2832 19.2311 19.6935C14.9264 24.1037 7.9449 24.1037 3.64018 19.6935C-0.665915 15.2832 -0.665915 8.13419 3.63949 3.72462Z" fill="#003D70"/>
<path fill-rule="evenodd" clip-rule="evenodd" d="M3.65816 3.74322C7.93946 -0.640968 14.881 -0.640968 19.1616 3.74322C23.4422 8.1274 23.4422 15.2355 19.1616 19.6218C14.881 24.006 7.93946 24.006 3.65885 19.6218C-0.623147 15.2355 -0.623147 8.1274 3.65816 3.74322Z" fill="#003D71"/>
<path fill-rule="evenodd" clip-rule="evenodd" d="M3.67762 3.76376C7.93482 -0.595734 14.8364 -0.595734 19.0929 3.76376C23.3488 8.12326 23.3488 15.1904 19.0929 19.5513C14.8364 23.9115 7.93482 23.9115 3.67831 19.5513C-0.578893 15.1904 -0.578893 8.12326 3.67762 3.76376Z" fill="#003E72"/>
<path fill-rule="evenodd" clip-rule="evenodd" d="M3.6961 3.78236C7.92851 -0.552453 14.7909 -0.552453 19.0226 3.78236C23.255 8.11717 23.255 15.1434 19.0226 19.4797C14.7909 23.8145 7.9292 23.8145 3.69679 19.4797C-0.536308 15.1434 -0.536308 8.11717 3.6961 3.78236Z" fill="#003F72"/>
<path fill-rule="evenodd" clip-rule="evenodd" d="M3.71511 3.80238C7.92341 -0.507043 14.7458 -0.507043 18.9534 3.80238C23.1611 8.1118 23.1611 15.0979 18.9534 19.4087C14.7458 23.7188 7.92341 23.7188 3.7158 19.4087C-0.492512 15.0979 -0.492512 8.1118 3.71511 3.80238Z" fill="#003F73"/>
<path fill-rule="evenodd" clip-rule="evenodd" d="M3.73454 3.82044C7.91874 -0.463586 14.7012 -0.463586 18.8847 3.82044C23.0675 8.10518 23.0675 15.051 18.8847 19.3372C14.7012 23.6219 7.91874 23.6219 3.73522 19.3372C-0.448981 15.051 -0.44898 8.10518 3.73454 3.82044Z" fill="#004074"/>
<path fill-rule="evenodd" clip-rule="evenodd" d="M3.75333 3.84099C7.91274 -0.418352 14.656 -0.418352 18.8147 3.84099C22.9734 8.10104 22.9734 15.006 18.8147 19.2667C14.656 23.5268 7.91343 23.5268 3.75402 19.2667C-0.405399 15.006 -0.405399 8.10104 3.75333 3.84099Z" fill="#004174"/>
<path fill-rule="evenodd" clip-rule="evenodd" d="M3.77285 3.85906C7.90747 -0.374895 14.6114 -0.374895 18.746 3.85906C22.8807 8.09372 22.8807 14.9585 18.746 19.1938C14.6114 23.4292 7.90747 23.4292 3.77354 19.1938C-0.361775 14.9585 -0.361775 8.09372 3.77285 3.85906Z" fill="#004175"/>
<path fill-rule="evenodd" clip-rule="evenodd" d="M3.79136 3.87961C7.90188 -0.329661 14.5659 -0.329661 18.6764 3.87961C22.7862 8.08887 22.7862 14.9134 18.6764 19.1241C14.5659 23.3341 7.90188 23.3341 3.79205 19.1241C-0.319159 14.9134 -0.319159 8.08887 3.79136 3.87961Z" fill="#004276"/>
<path fill-rule="evenodd" clip-rule="evenodd" d="M3.81042 3.8982C7.89684 -0.28638 14.5209 -0.28638 18.6066 3.8982C22.6924 8.08278 22.6924 14.8664 18.6066 19.0524C14.5209 23.237 7.89684 23.237 3.81111 19.0524C-0.275993 14.8664 -0.275993 8.08278 3.81042 3.8982Z" fill="#004376"/>
<path fill-rule="evenodd" clip-rule="evenodd" d="M3.82961 3.91822C7.89124 -0.24097 14.4768 -0.24097 18.5377 3.91822C22.5986 8.07741 22.5986 14.8208 18.5377 18.9814C14.4768 23.1413 7.89124 23.1413 3.8303 18.9814C-0.231324 14.8208 -0.231324 8.07741 3.82961 3.91822Z" fill="#004377"/>
<path fill-rule="evenodd" clip-rule="evenodd" d="M3.84828 3.93682C7.88511 -0.197689 14.4314 -0.197689 18.4675 3.93682C22.5044 8.07132 22.5044 14.7746 18.4675 18.9098C14.4314 23.045 7.8858 23.045 3.84897 18.9098C-0.188555 14.7746 -0.188555 8.07132 3.84828 3.93682Z" fill="#004478"/>
<path fill-rule="evenodd" clip-rule="evenodd" d="M3.86762 3.95488C7.88035 -0.154232 14.386 -0.154232 18.3987 3.95488C22.4108 8.0647 22.4108 14.7263 18.3987 18.8375C14.386 22.9474 7.88035 22.9474 3.86831 18.8375C-0.145115 14.7263 -0.145115 8.0647 3.86762 3.95488Z" fill="#004579"/>
<path fill-rule="evenodd" clip-rule="evenodd" d="M3.8865 3.97596C7.87513 -0.109174 14.3415 -0.109174 18.3294 3.97596C22.3174 8.06039 22.3174 14.6818 18.3294 18.7676C14.3415 22.8528 7.87513 22.8528 3.88719 18.7676C-0.101441 14.6818 -0.101442 8.06039 3.8865 3.97596Z" fill="#004679"/>
<path fill-rule="evenodd" clip-rule="evenodd" d="M3.90556 3.9935C7.8694 -0.0655403 14.2958 -0.0655403 18.2597 3.9935C22.2235 8.05324 22.2235 14.6344 18.2597 18.6949C14.2958 22.7546 7.8694 22.7546 3.90625 18.6949C-0.0582761 14.6344 -0.0582761 8.05324 3.90556 3.9935Z" fill="#00467A"/>
<path fill-rule="evenodd" clip-rule="evenodd" d="M3.92466 4.01404C7.86439 -0.0203066 14.2516 -0.0203066 18.1906 4.01404C22.1297 8.0484 22.1297 14.5894 18.1906 18.6252C14.2516 22.6602 7.86439 22.6602 3.92534 18.6252C-0.0150801 14.5894 -0.0150797 8.0484 3.92466 4.01404Z" fill="#00477B"/>
<path fill-rule="evenodd" clip-rule="evenodd" d="M3.9436 4.03264C7.85854 0.0229743 14.2065 0.0229743 18.1207 4.03264C22.0357 8.0423 22.0357 14.5424 18.1207 18.5528C14.2065 22.5624 7.85923 22.5624 3.94429 18.5528C0.0279635 14.5424 0.0279635 8.0423 3.9436 4.03264Z" fill="#00487C"/>
<path fill-rule="evenodd" clip-rule="evenodd" d="M3.9623 4.05266C7.85314 0.0683843 14.1611 0.0683843 18.0513 4.05266C21.9414 8.03693 21.9414 14.4968 18.0513 18.4825C14.1611 22.4675 7.85314 22.4675 3.96299 18.4825C0.0721447 14.4968 0.0721444 8.03693 3.9623 4.05266Z" fill="#00487C"/>
<path fill-rule="evenodd" clip-rule="evenodd" d="M3.98185 4.07125C7.8479 0.111665 14.1166 0.111665 17.9827 4.07125C21.848 8.03084 21.848 14.4498 17.9827 18.4108C14.1166 22.3704 7.84859 22.3704 3.98254 18.4108C0.115799 14.4498 0.115798 8.03084 3.98185 4.07125Z" fill="#00497D"/>
<path fill-rule="evenodd" clip-rule="evenodd" d="M4.00082 4.08985C7.84208 0.154946 14.0716 0.154946 17.9128 4.08985C21.7548 8.02405 21.7548 14.4028 17.9128 18.3384C14.0716 22.2733 7.84277 22.2733 4.00151 18.3384C0.158873 14.4028 0.158873 8.02405 4.00082 4.08985Z" fill="#004A7E"/>
<path fill-rule="evenodd" clip-rule="evenodd" d="M4.01961 4.10987C7.83677 0.200356 14.027 0.200356 17.8435 4.10987C21.6606 8.01938 21.6606 14.3573 17.8435 18.2682C14.027 22.1784 7.83677 22.1784 4.0203 18.2682C0.202454 14.3573 0.202455 8.01938 4.01961 4.10987Z" fill="#004A7F"/>
<path fill-rule="evenodd" clip-rule="evenodd" d="M4.03913 4.12793C7.8315 0.243814 13.9818 0.243814 17.7741 4.12793C21.5672 8.01206 21.5672 14.3104 17.7741 18.196C13.9818 22.0808 7.83219 22.0808 4.03982 18.196C0.246078 14.3104 0.246078 8.01206 4.03913 4.12793Z" fill="#004B7F"/>
<path fill-rule="evenodd" clip-rule="evenodd" d="M4.05762 4.14848C7.82588 0.289048 13.9362 0.289048 17.7045 4.14848C21.4734 8.00792 21.4734 14.2654 17.7045 18.1255C13.9362 21.9857 7.82657 21.9857 4.0583 18.1255C0.288664 14.2654 0.288663 8.00792 4.05762 4.14848Z" fill="#004C80"/>
<path fill-rule="evenodd" clip-rule="evenodd" d="M4.07662 4.16655C7.82078 0.332505 13.8919 0.332505 17.6353 4.16655C21.3795 8.002 21.3795 14.2179 17.6353 18.0533C13.8919 21.8881 7.82147 21.8881 4.07731 18.0533C0.332459 14.2179 0.332459 8.002 4.07662 4.16655Z" fill="#004C81"/>
<path fill-rule="evenodd" clip-rule="evenodd" d="M4.0955 4.1871C7.81487 0.377739 13.8467 0.377739 17.5661 4.1871C21.2855 7.99646 21.2855 14.1728 17.5661 17.9829C13.8467 21.7929 7.81556 21.7929 4.09619 17.9829C0.376132 14.1728 0.376132 7.99646 4.0955 4.1871Z" fill="#004D82"/>
<path fill-rule="evenodd" clip-rule="evenodd" d="M4.11435 4.20569C7.80962 0.421019 13.8015 0.421019 17.4968 4.20569C21.1914 7.99037 21.1914 14.1251 17.4968 17.9112C13.8015 21.6959 7.81031 21.6959 4.11504 17.9112C0.419084 14.1251 0.419084 7.99037 4.11435 4.20569Z" fill="#004E82"/>
<path fill-rule="evenodd" clip-rule="evenodd" d="M4.1339 4.22571C7.80438 0.46643 13.757 0.46643 17.4275 4.22571C21.098 7.9857 21.098 14.0802 17.4275 17.8409C13.757 21.6009 7.80507 21.6009 4.13459 17.8409C0.462738 14.0802 0.462738 7.9857 4.1339 4.22571Z" fill="#004F83"/>
<path fill-rule="evenodd" clip-rule="evenodd" d="M4.1523 4.24431C7.79867 0.50971 13.7114 0.50971 17.3577 4.24431C21.0041 7.9789 21.0041 14.0333 17.3577 17.7686C13.7114 21.5039 7.79936 21.5039 4.15299 17.7686C0.505923 14.0333 0.505923 7.9789 4.1523 4.24431Z" fill="#004F84"/>
<path fill-rule="evenodd" clip-rule="evenodd" d="M4.17158 4.26433C7.79385 0.555121 13.6673 0.555121 17.2882 4.26433C20.9105 7.97353 20.9105 13.9877 17.2882 17.6983C13.6673 21.4082 7.79454 21.4082 4.17226 17.6983C0.549993 13.9877 0.549993 7.97353 4.17158 4.26433Z" fill="#005085"/>
<path fill-rule="evenodd" clip-rule="evenodd" d="M4.19113 4.28292C7.78861 0.598401 13.6221 0.598401 17.2189 4.28292C20.8171 7.96744 20.8171 13.9407 17.2189 17.6266C13.6221 21.3111 7.78929 21.3111 4.19182 17.6266C0.593647 13.9407 0.593647 7.96744 4.19113 4.28292Z" fill="#005186"/>
<path fill-rule="evenodd" clip-rule="evenodd" d="M4.20958 4.30294C7.78296 0.643812 13.5765 0.643812 17.1492 4.30294C20.7226 7.96207 20.7226 13.8951 17.1492 17.5556C13.5765 21.2155 7.78364 21.2155 4.21027 17.5556C0.636202 13.8951 0.636202 7.96207 4.20958 4.30294Z" fill="#005186"/>
<path fill-rule="evenodd" clip-rule="evenodd" d="M4.22907 4.32154C7.77766 0.687092 13.532 0.687092 17.0806 4.32154C20.6298 7.95668 20.6298 13.8481 17.0806 17.4847C13.532 21.1191 7.77835 21.1191 4.22976 17.4847C0.680486 13.8481 0.680486 7.95668 4.22907 4.32154Z" fill="#005287"/>
<path fill-rule="evenodd" clip-rule="evenodd" d="M4.24756 4.3396C7.77204 0.73055 13.4871 0.73055 17.0102 4.3396C20.5354 7.94936 20.5354 13.8013 17.0102 17.4117C13.4871 21.0215 7.77273 21.0215 4.24824 17.4117C0.723072 13.8013 0.723072 7.94936 4.24756 4.3396Z" fill="#005388"/>
<path fill-rule="evenodd" clip-rule="evenodd" d="M4.26662 4.36015C7.767 0.775784 13.4414 0.775784 16.9411 4.36015C20.4415 7.94522 20.4415 13.7555 16.9411 17.342C13.4414 20.9264 7.767 20.9264 4.26731 17.342C0.766237 13.7555 0.766237 7.94522 4.26662 4.36015Z" fill="#005489"/>
<path fill-rule="evenodd" clip-rule="evenodd" d="M4.28587 4.37874C7.76146 0.819064 13.3973 0.819064 16.8722 4.37874C20.3485 7.93842 20.3485 13.7092 16.8722 17.2696C13.3973 20.8293 7.76215 20.8293 4.28656 17.2696C0.810277 13.7092 0.810277 7.93842 4.28587 4.37874Z" fill="#005489"/>
<path fill-rule="evenodd" clip-rule="evenodd" d="M4.30475 4.39876C7.75555 0.864475 13.3522 0.864475 16.8023 4.39876C20.2544 7.93376 20.2544 13.6637 16.8023 17.1994C13.3522 20.7344 7.75624 20.7344 4.30544 17.1994C0.85395 13.6637 0.85395 7.93376 4.30475 4.39876Z" fill="#00558A"/>
<path fill-rule="evenodd" clip-rule="evenodd" d="M4.32381 4.41736C7.75051 0.907755 13.3065 0.907755 16.7332 4.41736C20.1606 7.92696 20.1606 13.616 16.7332 17.1277C13.3065 20.6373 7.7512 20.6373 4.3245 17.1277C0.897116 13.616 0.897116 7.92696 4.32381 4.41736Z" fill="#00568B"/>
<path fill-rule="evenodd" clip-rule="evenodd" d="M4.34291 4.43542C7.74481 0.951212 13.2622 0.951212 16.6641 4.43542C20.0667 7.92034 20.0667 13.5691 16.6641 17.0548C13.2622 20.5397 7.7455 20.5397 4.34359 17.0548C0.940312 13.5691 0.940312 7.92034 4.34291 4.43542Z" fill="#00568C"/>
<path fill-rule="evenodd" clip-rule="evenodd" d="M4.36185 4.45597C7.73965 0.996446 13.2171 0.996446 16.5942 4.45597C19.9727 7.9155 19.9727 13.5241 16.5942 16.985C13.2171 20.4446 7.74034 20.4446 4.36253 16.985C0.983355 13.5241 0.983355 7.9155 4.36185 4.45597Z" fill="#00578D"/>
<path fill-rule="evenodd" clip-rule="evenodd" d="M4.38109 4.47404C7.73479 1.0399 13.1723 1.0399 16.5253 4.47404C19.879 7.90888 19.879 13.4766 16.5253 16.9128C13.1723 20.347 7.73548 20.347 4.38178 16.9128C1.02739 13.4766 1.02739 7.90888 4.38109 4.47404Z" fill="#00588D"/>
<path fill-rule="evenodd" clip-rule="evenodd" d="M4.4001 4.49459C7.72901 1.08514 13.1273 1.08514 16.4555 4.49459C19.7851 7.90404 19.7851 13.4315 16.4555 16.8424C13.1273 20.2525 7.7297 20.2525 4.40079 16.8424C1.07119 13.4315 1.07119 7.90404 4.4001 4.49459Z" fill="#00588E"/>
<path fill-rule="evenodd" clip-rule="evenodd" d="M4.41907 4.51265C7.72319 1.12859 13.0822 1.12859 16.3856 4.51265C19.6911 7.89742 19.6911 13.384 16.3856 16.7702C13.0822 20.1542 7.72388 20.1542 4.41976 16.7702C1.11426 13.384 1.11426 7.89742 4.41907 4.51265Z" fill="#00598F"/>
<path fill-rule="evenodd" clip-rule="evenodd" d="M4.43804 4.53373C7.71806 1.17365 13.0372 1.17365 16.3172 4.53373C19.5979 7.8931 19.5979 13.3395 16.3172 16.7003C13.0372 20.0603 7.71875 20.0603 4.43873 16.7003C1.15803 13.3395 1.15803 7.8931 4.43804 4.53373Z" fill="#005A90"/>
<path fill-rule="evenodd" clip-rule="evenodd" d="M4.45744 4.5518C7.71266 1.21711 12.9925 1.21711 16.2477 4.5518C19.5043 7.88719 19.5043 13.2927 16.2477 16.628C12.9925 19.9627 7.71335 19.9627 4.45744 16.628C1.20153 13.2927 1.20153 7.88719 4.45744 4.5518Z" fill="#005B91"/>
<path fill-rule="evenodd" clip-rule="evenodd" d="M4.47581 4.57182C7.70693 1.26252 12.9475 1.26252 16.1779 4.57182C19.4104 7.88111 19.4104 13.2471 16.1779 16.5578C12.9475 19.8678 7.70761 19.8678 4.47649 16.5578C1.24469 13.2471 1.24469 7.88111 4.47581 4.57182Z" fill="#005B92"/>
<path fill-rule="evenodd" clip-rule="evenodd" d="M4.49487 4.59041C7.70189 1.3058 12.9025 1.3058 16.1089 4.59041C19.3166 7.87502 19.3166 13.2001 16.1089 16.4854C12.9025 19.77 7.70258 19.77 4.49556 16.4854C1.28785 13.2001 1.28785 7.87502 4.49487 4.59041Z" fill="#005C92"/>
<path fill-rule="evenodd" clip-rule="evenodd" d="M4.51381 4.61043C7.69604 1.35121 12.8574 1.35121 16.039 4.61043C19.2226 7.87036 19.2226 13.1545 16.039 16.4151C12.8574 19.6744 7.69673 19.6744 4.5145 16.4151C1.33089 13.1545 1.33089 7.87036 4.51381 4.61043Z" fill="#005D93"/>
<path fill-rule="evenodd" clip-rule="evenodd" d="M4.53309 4.62903C7.69121 1.39449 12.8127 1.39449 15.9701 4.62903C19.1289 7.86356 19.1289 13.1075 15.9701 16.3428C12.8127 19.578 7.6919 19.578 4.53378 16.3428C1.37496 13.1075 1.37496 7.86356 4.53309 4.62903Z" fill="#005E94"/>
<path fill-rule="evenodd" clip-rule="evenodd" d="M4.55224 4.64904C7.68558 1.4399 12.7678 1.4399 15.9004 4.64904C19.0351 7.85819 19.0351 13.0619 15.9004 16.2725C12.7678 19.4823 7.68626 19.4823 4.55293 16.2725C1.41822 13.0619 1.41822 7.85819 4.55224 4.64904Z" fill="#005E95"/>
<path fill-rule="evenodd" clip-rule="evenodd" d="M4.57055 4.66764C7.67978 1.48318 12.722 1.48318 15.8313 4.66764C18.9412 7.8528 18.9412 13.0149 15.8313 16.2015C12.722 19.386 7.68046 19.386 4.57123 16.2015C1.46131 13.0149 1.46131 7.8528 4.57055 4.66764Z" fill="#005F96"/>
<path fill-rule="evenodd" clip-rule="evenodd" d="M4.59004 4.68623C7.67448 1.52646 12.6775 1.52646 15.7619 4.68623C18.8477 7.8453 18.8477 12.9679 15.7619 16.1284C12.6775 19.2882 7.67517 19.2882 4.59073 16.1284C1.5056 12.9679 1.5056 7.8453 4.59004 4.68623Z" fill="#006096"/>
<path fill-rule="evenodd" clip-rule="evenodd" d="M4.60876 4.70678C7.6691 1.5717 12.6322 1.5717 15.6925 4.70678C18.7535 7.84116 18.7535 12.9229 15.6925 16.0587C12.6322 19.1931 7.66979 19.1931 4.60945 16.0587C1.54843 12.9229 1.54843 7.84116 4.60876 4.70678Z" fill="#006197"/>
<path fill-rule="evenodd" clip-rule="evenodd" d="M4.62783 4.72485C7.66337 1.61515 12.5872 1.61515 15.6227 4.72485C18.6597 7.83454 18.6597 12.8761 15.6227 15.9865C12.5872 19.0962 7.66475 19.0962 4.62852 15.9865C1.59159 12.8761 1.59159 7.83454 4.62783 4.72485Z" fill="#006198"/>
<path fill-rule="evenodd" clip-rule="evenodd" d="M4.64738 4.74487C7.65882 1.66056 12.5427 1.66056 15.5534 4.74487C18.5663 7.82988 18.5663 12.8298 15.5534 15.9155C12.5427 19.0005 7.6602 19.0005 4.64807 15.9155C1.63525 12.8298 1.63525 7.82988 4.64738 4.74487Z" fill="#006299"/>
<path fill-rule="evenodd" clip-rule="evenodd" d="M4.6658 4.76346C7.65315 1.70385 12.4978 1.70385 15.4837 4.76346C18.4724 7.82308 18.4724 12.7828 15.4837 15.8438C12.4978 18.9034 7.65383 18.9034 4.66649 15.8438C1.67846 12.7828 1.67846 7.82308 4.6658 4.76346Z" fill="#00639A"/>
<path fill-rule="evenodd" clip-rule="evenodd" d="M4.68532 4.78348C7.64787 1.74926 12.4532 1.74926 15.4151 4.78348C18.379 7.81842 18.379 12.7379 15.4151 15.7743C12.4532 18.8085 7.64856 18.8085 4.68601 15.7743C1.72209 12.7379 1.72209 7.81842 4.68532 4.78348Z" fill="#00649B"/>
<path fill-rule="evenodd" clip-rule="evenodd" d="M4.70421 4.80208C7.64265 1.79254 12.4081 1.79254 15.3458 4.80208C18.285 7.81162 18.285 12.6909 15.3458 15.7012C12.4081 18.7107 7.64334 18.7107 4.7049 15.7012C1.76576 12.6909 1.76576 7.81162 4.70421 4.80208Z" fill="#00649C"/>
<path fill-rule="evenodd" clip-rule="evenodd" d="M4.723 4.82014C7.63665 1.83599 12.3621 1.83599 15.2758 4.82014C18.1908 7.805 18.1908 12.6434 15.2758 15.629C12.3621 18.6138 7.63734 18.6138 4.72369 15.629C1.80934 12.6434 1.80934 7.805 4.723 4.82014Z" fill="#00659C"/>
<path fill-rule="evenodd" clip-rule="evenodd" d="M4.74251 4.84069C7.63138 1.88123 12.3176 1.88123 15.2072 4.84069C18.0974 7.80086 18.0974 12.5984 15.2072 15.5592C12.3176 18.5187 7.63275 18.5187 4.74251 15.5592C1.85296 12.5984 1.85296 7.80086 4.74251 4.84069Z" fill="#00669D"/>
<path fill-rule="evenodd" clip-rule="evenodd" d="M4.761 4.85929C7.62576 1.92451 12.2727 1.92451 15.1368 4.85929C18.0029 7.79407 18.0029 12.5514 15.1368 15.4875C12.2727 18.4216 7.62713 18.4216 4.761 15.4875C1.89555 12.5514 1.89555 7.79407 4.761 4.85929Z" fill="#00679E"/>
<path fill-rule="evenodd" clip-rule="evenodd" d="M4.78006 4.87931C7.62072 1.96992 12.2271 1.96992 15.0677 4.87931C17.9091 7.7894 17.9091 12.5058 15.0677 15.4166C12.2271 18.3267 7.62141 18.3267 4.78006 15.4166C1.93871 12.5058 1.93871 7.7894 4.78006 4.87931Z" fill="#00679F"/>
<path fill-rule="evenodd" clip-rule="evenodd" d="M4.79934 4.8979C7.61521 2.0132 12.183 2.0132 14.9989 4.8979C17.8161 7.7826 17.8161 12.4588 14.9989 15.3449C12.183 18.2289 7.61658 18.2289 4.79934 15.3449C1.98278 12.4588 1.98278 7.7826 4.79934 4.8979Z" fill="#0068A0"/>
<path fill-rule="evenodd" clip-rule="evenodd" d="M4.81828 4.91792C7.61004 2.05861 12.1379 2.05861 14.929 4.91792C17.7221 7.77794 17.7221 12.4132 14.929 15.2746C12.1379 18.1339 7.61073 18.1339 4.81828 15.2746C2.02582 12.4132 2.02582 7.77794 4.81828 4.91792Z" fill="#0069A1"/>
<path fill-rule="evenodd" clip-rule="evenodd" d="M4.83734 4.93652C7.60432 2.10189 12.0929 2.10189 14.8599 4.93652C17.6282 7.77114 17.6282 12.3662 14.8599 15.2022C12.0929 18.0369 7.60569 18.0369 4.83734 15.2022C2.06899 12.3662 2.06899 7.77114 4.83734 4.93652Z" fill="#006AA2"/>
<path fill-rule="evenodd" clip-rule="evenodd" d="M4.85617 4.95654C7.59904 2.1473 12.0477 2.1473 14.7906 4.95654C17.5341 7.76647 17.5341 12.3213 14.7906 15.132C12.0477 17.9419 7.59973 17.9419 4.85617 15.132C2.11329 12.3213 2.11329 7.76647 4.85617 4.95654Z" fill="#006BA2"/>
<path fill-rule="evenodd" clip-rule="evenodd" d="M4.87505 4.97513C7.59382 2.19058 12.0032 2.19058 14.7206 4.97513C17.4408 7.75968 17.4408 12.2743 14.7206 15.0596C12.0032 17.8448 7.59451 17.8448 4.87574 15.0596C2.15628 12.2743 2.15628 7.75968 4.87505 4.97513Z" fill="#006BA3"/>
<path fill-rule="evenodd" clip-rule="evenodd" d="M4.89457 4.99373C7.58854 2.23386 11.958 2.23386 14.652 4.99373C17.3473 7.75359 17.3473 12.2273 14.652 14.9879C11.958 17.7478 7.58923 17.7478 4.89457 14.9879C2.1999 12.2273 2.1999 7.75359 4.89457 4.99373Z" fill="#006CA4"/>
<path fill-rule="evenodd" clip-rule="evenodd" d="M4.913 5.01374C7.58218 2.27927 11.9131 2.27927 14.5823 5.01374C17.2528 7.74822 17.2528 12.1818 14.5823 14.9177C11.9131 17.6514 7.58356 17.6514 4.91368 14.9177C2.24312 12.1818 2.24312 7.74822 4.913 5.01374Z" fill="#006DA5"/>
<path fill-rule="evenodd" clip-rule="evenodd" d="M4.93202 5.03181C7.57711 2.32273 11.8674 2.32273 14.5124 5.03181C17.1589 7.7416 17.1589 12.1342 14.5124 14.8454C11.8674 17.5545 7.5778 17.5545 4.93202 14.8454C2.28625 12.1342 2.28625 7.7416 4.93202 5.03181Z" fill="#006EA6"/>
<path fill-rule="evenodd" clip-rule="evenodd" d="M4.95157 5.05236C7.57187 2.36796 11.8236 2.36796 14.4439 5.05236C17.0655 7.73675 17.0655 12.0892 14.4439 14.775C11.8236 17.4594 7.57325 17.4594 4.95157 14.775C2.3299 12.0892 2.3299 7.73675 4.95157 5.05236Z" fill="#006EA7"/>
<path fill-rule="evenodd" clip-rule="evenodd" d="M4.97024 5.07095C7.56643 2.41124 11.7782 2.41124 14.3737 5.07095C16.9719 7.73066 16.9719 12.0422 14.3737 14.7033C11.7782 17.363 7.56712 17.363 4.97024 14.7033C2.37336 12.0422 2.37336 7.73066 4.97024 5.07095Z" fill="#006FA8"/>
<path fill-rule="evenodd" clip-rule="evenodd" d="M4.98925 5.09097C7.56065 2.45665 11.7331 2.45665 14.3045 5.09097C16.878 7.726 16.878 11.9973 14.3045 14.6331C11.7331 17.2674 7.56202 17.2674 4.98925 14.6331C2.41716 11.9973 2.41716 7.726 4.98925 5.09097Z" fill="#0070A9"/>
<path fill-rule="evenodd" clip-rule="evenodd" d="M5.00822 5.10957C7.55552 2.49994 11.6881 2.49994 14.2354 5.10957C16.784 7.7192 16.784 11.9496 14.2354 14.5607C11.6881 17.1703 7.55689 17.1703 5.00822 14.5607C2.46023 11.9496 2.46023 7.7192 5.00822 5.10957Z" fill="#0071A9"/>
<path fill-rule="evenodd" clip-rule="evenodd" d="M5.02701 5.12816C7.55021 2.54322 11.6428 2.54322 14.166 5.12816C16.6906 7.71311 16.6906 11.9026 14.166 14.4883C11.6428 17.0732 7.55159 17.0732 5.0277 14.4883C2.50382 11.9026 2.50382 7.71311 5.02701 5.12816Z" fill="#0071AA"/>
<path fill-rule="evenodd" clip-rule="evenodd" d="M5.04653 5.14818C7.54493 2.58863 11.5983 2.58863 14.0967 5.14818C16.5965 7.70774 16.5965 11.8578 14.0967 14.4187C11.5983 16.9776 7.54631 16.9776 5.04653 14.4187C2.54744 11.8578 2.54744 7.70774 5.04653 5.14818Z" fill="#0072AB"/>
<path fill-rule="evenodd" clip-rule="evenodd" d="M5.06523 5.16625C7.53953 2.63208 11.5529 2.63208 14.0272 5.16625C16.5029 7.70112 16.5029 11.8102 14.0272 14.3458C11.5529 16.8807 7.54022 16.8807 5.06523 14.3458C2.59024 11.8102 2.59024 7.70112 5.06523 5.16625Z" fill="#0073AC"/>
<path fill-rule="evenodd" clip-rule="evenodd" d="M5.08405 5.1868C7.53425 2.67732 11.5084 2.67732 13.9572 5.1868C16.4088 7.69698 16.4088 11.7652 13.9572 14.2761C11.5084 16.7856 7.53494 16.7856 5.08474 14.2761C2.63385 11.7652 2.63385 7.69698 5.08405 5.1868Z" fill="#0074AD"/>
<path fill-rule="evenodd" clip-rule="evenodd" d="M5.10354 5.20486C7.52894 2.72078 11.4632 2.72078 13.8886 5.20486C16.3154 7.68966 16.3154 11.7177 13.8886 14.2032C11.4632 16.688 7.52963 16.688 5.10354 14.2032C2.67744 11.7177 2.67744 7.68966 5.10354 5.20486Z" fill="#0074AE"/>
<path fill-rule="evenodd" clip-rule="evenodd" d="M5.12224 5.22541C7.52285 2.76601 11.4185 2.76601 13.8191 5.22541C16.2218 7.68552 16.2218 11.6726 13.8191 14.1334C11.4185 16.5928 7.52423 16.5928 5.12224 14.1334C2.72093 11.6726 2.72093 7.68552 5.12224 5.22541Z" fill="#0075AE"/>
<path fill-rule="evenodd" clip-rule="evenodd" d="M5.1413 5.24401C7.51781 2.80929 11.3735 2.80929 13.7494 5.24401C16.1279 7.67872 16.1279 11.6256 13.7494 14.0617C11.3735 16.4958 7.51919 16.4958 5.1413 14.0617C2.7641 11.6256 2.7641 7.67872 5.1413 5.24401Z" fill="#0076AF"/>
<path fill-rule="evenodd" clip-rule="evenodd" d="M5.16085 5.26455C7.51257 2.85452 11.329 2.85452 13.6808 5.26455C16.0346 7.67459 16.0346 11.5806 13.6808 13.9913C11.329 16.4013 7.51395 16.4013 5.16085 13.9913C2.80775 11.5806 2.80775 7.67459 5.16085 5.26455Z" fill="#0077B0"/>
<path fill-rule="evenodd" clip-rule="evenodd" d="M5.17924 5.28209C7.50686 2.89816 11.2834 2.89816 13.611 5.28209C15.94 7.66673 15.94 11.5325 13.611 13.9193C11.2834 16.3032 7.50824 16.3032 5.17924 13.9193C2.85094 11.5325 2.85094 7.66673 5.17924 5.28209Z" fill="#0078B1"/>
<path fill-rule="evenodd" clip-rule="evenodd" d="M5.1988 5.30317C7.50162 2.94321 11.2389 2.94321 13.5417 5.30317C15.8466 7.66312 15.8466 11.488 13.5417 13.8487C11.2389 16.2079 7.503 16.2079 5.1988 13.8487C2.89459 11.488 2.89459 7.66312 5.1988 5.30317Z" fill="#0078B2"/>
<path fill-rule="evenodd" clip-rule="evenodd" d="M5.21719 5.32123C7.49592 2.98667 11.1932 2.98667 13.472 5.32123C15.7521 7.6565 15.7521 11.4412 13.472 13.7764C11.1932 16.111 7.49729 16.111 5.21719 13.7764C2.93778 11.4412 2.93778 7.6565 5.21719 5.32123Z" fill="#0079B3"/>
<path fill-rule="evenodd" clip-rule="evenodd" d="M5.23602 5.34125C7.49064 3.03208 11.148 3.03208 13.4027 5.34125C15.6587 7.65113 15.6587 11.3949 13.4027 13.7062C11.148 16.0154 7.49133 16.0154 5.23671 13.7062C2.98139 11.3949 2.98139 7.65113 5.23602 5.34125Z" fill="#007AB4"/>
<path fill-rule="evenodd" clip-rule="evenodd" d="M5.25553 5.35985C7.48536 3.07536 11.1035 3.07536 13.3333 5.35985C15.5652 7.64504 15.5652 11.3486 13.3333 13.6338C11.1035 15.9183 7.48674 15.9183 5.25553 13.6338C3.02501 11.3486 3.02501 7.64504 5.25553 5.35985Z" fill="#007BB5"/>
<path fill-rule="evenodd" clip-rule="evenodd" d="M5.27447 5.37844C7.4802 3.11864 11.0584 3.11864 13.2641 5.37844C15.4712 7.63825 15.4712 11.3009 13.2641 13.5621C11.0584 15.8219 7.48158 15.8219 5.27447 13.5621C3.06805 11.3009 3.06805 7.63825 5.27447 5.37844Z" fill="#007BB6"/>
<path fill-rule="evenodd" clip-rule="evenodd" d="M5.29375 5.39846C7.47469 3.16405 11.0143 3.16405 13.1946 5.39846C15.3783 7.63287 15.3783 11.256 13.1946 13.4919C11.0143 15.7263 7.47607 15.7263 5.29375 13.4919C3.11212 11.256 3.11212 7.63287 5.29375 5.39846Z" fill="#007CB6"/>
<path fill-rule="evenodd" clip-rule="evenodd" d="M5.31281 5.41653C7.46965 3.20751 10.9687 3.20751 13.1255 5.41653C15.2837 7.62696 15.2837 11.2085 13.1255 13.4196C10.9687 15.6287 7.47103 15.6287 5.31281 13.4196C3.15529 11.2085 3.15529 7.62696 5.31281 5.41653Z" fill="#007DB7"/>
<path fill-rule="evenodd" clip-rule="evenodd" d="M5.33121 5.43708C7.46394 3.25274 10.9237 3.25274 13.0557 5.43708C15.1898 7.62212 15.1898 11.1635 13.0557 13.3499C10.9237 15.5335 7.46463 15.5335 5.33121 13.3499C3.19848 11.1635 3.19848 7.62212 5.33121 5.43708Z" fill="#007EB8"/>
<path fill-rule="evenodd" clip-rule="evenodd" d="M5.35076 5.45567C7.4587 3.29603 10.8792 3.29603 12.9865 5.45567C15.0965 7.61603 15.0965 11.1165 12.9865 13.2775C10.8792 15.4365 7.46008 15.4365 5.35076 13.2775C3.24213 11.1165 3.24213 7.61603 5.35076 5.45567Z" fill="#007FB9"/>
<path fill-rule="evenodd" clip-rule="evenodd" d="M5.36918 5.47569C7.45233 3.34144 10.8336 3.34144 12.9167 5.47569C15.0019 7.61065 15.0019 11.0709 12.9167 13.2066C10.8336 15.3415 7.45371 15.3415 5.36918 13.2066C3.28535 11.0709 3.28535 7.61065 5.36918 5.47569Z" fill="#007FBA"/>
<path fill-rule="evenodd" clip-rule="evenodd" d="M5.38849 5.49429C7.44754 3.38472 10.7888 3.38472 12.8472 5.49429C14.9083 7.60456 14.9083 11.0239 12.8472 13.1349C10.7888 15.2444 7.44892 15.2444 5.38849 13.1349C3.32875 11.0239 3.32875 7.60456 5.38849 5.49429Z" fill="#0080BB"/>
<path fill-rule="evenodd" clip-rule="evenodd" d="M5.40758 5.51288C7.44253 3.428 10.7439 3.428 12.7781 5.51288C14.8152 7.59777 14.8152 10.9769 12.7781 13.0632C10.7439 15.1474 7.44391 15.1474 5.40758 13.0632C3.37195 10.9769 3.37195 7.59777 5.40758 5.51288Z" fill="#0081BC"/>
<path fill-rule="evenodd" clip-rule="evenodd" d="M5.42647 5.5329C7.43662 3.47341 10.6987 3.47341 12.7089 5.5329C14.7211 7.5931 14.7211 10.932 12.7089 12.9929C10.6987 15.0524 7.438 15.0524 5.42647 12.9929C3.41562 10.932 3.41562 7.5931 5.42647 5.5329Z" fill="#0082BD"/>
<path fill-rule="evenodd" clip-rule="evenodd" d="M5.44572 5.5515C7.43177 3.51669 10.6539 3.51669 12.6393 5.5515C14.6274 7.5863 14.6274 10.885 12.6393 12.9205C10.6539 14.9546 7.43314 14.9546 5.44572 12.9205C3.45966 10.885 3.45966 7.5863 5.44572 5.5515Z" fill="#0082BE"/>
<path fill-rule="evenodd" clip-rule="evenodd" d="M5.46478 5.57152C7.42604 3.5621 10.609 3.5621 12.5702 5.57152C14.5335 7.58164 14.5335 10.8394 12.5702 12.8503C10.609 14.859 7.42742 14.859 5.46478 12.8503C3.50283 10.8394 3.50283 7.58164 5.46478 5.57152Z" fill="#0083BF"/>
<path fill-rule="evenodd" clip-rule="evenodd" d="M5.48375 5.58958C7.42091 3.60556 10.5639 3.60556 12.5003 5.58958C14.4396 7.57431 14.4396 10.7919 12.5003 12.7774C10.5639 14.7621 7.4216 14.7621 5.48375 12.7774C3.5459 10.7919 3.5459 7.57431 5.48375 5.58958Z" fill="#0084BF"/>
<path fill-rule="evenodd" clip-rule="evenodd" d="M5.50272 5.61013C7.41509 3.65079 10.5195 3.65079 12.4312 5.61013C14.3463 7.57018 14.3463 10.7469 12.4312 12.7076C10.5195 14.667 7.41647 14.667 5.50272 12.7076C3.58967 10.7469 3.58967 7.57018 5.50272 5.61013Z" fill="#0085C0"/>
<path fill-rule="evenodd" clip-rule="evenodd" d="M5.52191 5.62873C7.41017 3.69407 10.474 3.69407 12.3622 5.62873C14.2525 7.56338 14.2525 10.6999 12.3622 12.6359C10.474 14.5699 7.41155 14.5699 5.52191 12.6359C3.63296 10.6999 3.63296 7.56338 5.52191 5.62873Z" fill="#0086C1"/>
<path fill-rule="evenodd" clip-rule="evenodd" d="M5.54054 5.64927C7.40471 3.7393 10.4292 3.7393 12.2927 5.64927C14.1582 7.55924 14.1582 10.6548 12.2927 12.5655C10.4292 14.4748 7.40539 14.4748 5.54054 12.5655C3.67569 10.6548 3.67569 7.55924 5.54054 5.64927Z" fill="#0086C2"/>
<path fill-rule="evenodd" clip-rule="evenodd" d="M5.56001 5.66734C7.39938 3.78276 10.384 3.78276 12.2233 5.66734C14.0648 7.55262 14.0648 10.6073 12.2233 12.4933C10.384 14.3779 7.40075 14.3779 5.56001 12.4933C3.71995 10.6073 3.71995 7.55262 5.56001 5.66734Z" fill="#0087C3"/>
<path fill-rule="evenodd" clip-rule="evenodd" d="M5.57843 5.68736C7.39301 3.82817 10.339 3.82817 12.1536 5.68736C13.9709 7.54725 13.9709 10.5624 12.1536 12.423C10.339 14.2822 7.39508 14.2822 5.57843 12.423C3.76316 10.5624 3.76316 7.54725 5.57843 5.68736Z" fill="#0088C4"/>
<path fill-rule="evenodd" clip-rule="evenodd" d="M5.59749 5.70595C7.38797 3.87145 10.2941 3.87145 12.0838 5.70595C13.8764 7.54116 13.8764 10.5147 12.0838 12.3506C10.2941 14.1851 7.38935 14.1851 5.59749 12.3506C3.80633 10.5147 3.80633 7.54116 5.59749 5.70595Z" fill="#0089C5"/>
<path fill-rule="evenodd" clip-rule="evenodd" d="M5.61677 5.72597C7.38246 3.91686 10.2493 3.91686 12.015 5.72597C13.7834 7.53579 13.7834 10.4699 12.015 12.2804C10.2493 14.0895 7.38452 14.0895 5.61677 12.2804C3.8504 10.4699 3.8504 7.53579 5.61677 5.72597Z" fill="#008AC6"/>
<path fill-rule="evenodd" clip-rule="evenodd" d="M5.63571 5.74457C7.3773 3.96014 10.2042 3.96014 11.9458 5.74457C13.6894 7.5297 13.6894 10.4222 11.9458 12.2087C10.2042 13.9924 7.37867 13.9924 5.63571 12.2087C3.89344 10.4222 3.89344 7.5297 5.63571 5.74457Z" fill="#008AC7"/>
<path fill-rule="evenodd" clip-rule="evenodd" d="M5.65499 5.76316C7.37178 4.00342 10.1594 4.00342 11.8762 5.76316C13.5958 7.5229 13.5958 10.3759 11.8762 12.1363C10.1594 13.8953 7.37385 13.8953 5.65499 12.1363C3.93682 10.3759 3.93682 7.5229 5.65499 5.76316Z" fill="#008BC8"/>
<path fill-rule="evenodd" clip-rule="evenodd" d="M5.67366 5.78318C7.36635 4.04883 10.114 4.04883 11.8067 5.78318C13.5022 7.51824 13.5022 10.3303 11.8067 12.066C10.114 13.8004 7.36772 13.8004 5.67366 12.066C3.98028 10.3303 3.98028 7.51824 5.67366 5.78318Z" fill="#008CC9"/>
<path fill-rule="evenodd" clip-rule="evenodd" d="M5.69251 5.80178C7.36109 4.09212 10.0688 4.09212 11.7374 5.80178C13.4081 7.51215 13.4081 10.2833 11.7374 11.9944C10.0688 13.7033 7.36247 13.7033 5.69251 11.9944C4.02323 10.2833 4.02323 7.51215 5.69251 5.80178Z" fill="#008DC9"/>
<path fill-rule="evenodd" clip-rule="evenodd" d="M5.71178 5.8218C7.35558 4.13753 10.0241 4.13753 11.6679 5.8218C13.3144 7.50677 13.3144 10.2377 11.6679 11.9234C10.0241 13.6077 7.35765 13.6077 5.71178 11.9234C4.06661 10.2377 4.06661 7.50677 5.71178 5.8218Z" fill="#008ECA"/>
<path fill-rule="evenodd" clip-rule="evenodd" d="M5.73067 5.84039C7.35036 4.18081 9.97892 4.18081 11.5986 5.84039C13.2204 7.50068 13.2204 10.1907 11.5986 11.8517C9.97892 13.5106 7.35174 13.5106 5.73067 11.8517C4.11029 10.1907 4.11029 7.50068 5.73067 5.84039Z" fill="#008ECB"/>
<path fill-rule="evenodd" clip-rule="evenodd" d="M5.74995 5.86041C7.34485 4.22622 9.93484 4.22622 11.5297 5.86041C13.1267 7.49531 13.1267 10.1451 11.5297 11.7815C9.93484 13.4149 7.34622 13.4149 5.74995 11.7815C4.15436 10.1451 4.15436 7.49531 5.74995 5.86041Z" fill="#008FCC"/>
<path fill-rule="evenodd" clip-rule="evenodd" d="M5.76889 5.87901C7.339 4.2695 9.88905 4.2695 11.4598 5.87901C13.0327 7.48922 13.0327 10.0981 11.4598 11.7091C9.88905 13.3186 7.34106 13.3186 5.76889 11.7091C4.1974 10.0981 4.1974 7.48922 5.76889 5.87901Z" fill="#0090CD"/>
<path fill-rule="evenodd" clip-rule="evenodd" d="M5.78749 5.89707C7.3335 4.31296 9.8443 4.31296 11.3903 5.89707C12.9391 7.4826 12.9391 10.0513 11.3903 11.6369C9.8443 13.221 7.33557 13.221 5.78749 11.6369C4.24011 10.0513 4.24011 7.4826 5.78749 5.89707Z" fill="#0091CE"/>
<path fill-rule="evenodd" clip-rule="evenodd" d="M5.80695 5.91762C7.32817 4.35819 9.79972 4.35819 11.3209 5.91762C12.8456 7.47776 12.8456 10.0063 11.3209 11.5671C9.79972 13.1258 7.33024 13.1258 5.80695 11.5671C4.28436 10.0063 4.28436 7.47776 5.80695 5.91762Z" fill="#0092CF"/>
<path fill-rule="evenodd" clip-rule="evenodd" d="M5.82571 5.93622C7.32283 4.40147 9.75443 4.40147 11.2515 5.93622C12.7514 7.47167 12.7514 9.95928 11.2515 11.4947C9.75443 13.0295 7.32489 13.0295 5.82571 11.4947C4.32722 9.95928 4.32722 7.47167 5.82571 5.93622Z" fill="#0093D0"/>
<path fill-rule="evenodd" clip-rule="evenodd" d="M5.84477 5.95623C7.31779 4.44688 9.70945 4.44688 11.1818 5.95623C12.6575 7.4663 12.6575 9.91371 11.1818 11.4245C9.70945 12.9338 7.31916 12.9338 5.84477 11.4245C4.37039 9.91371 4.37039 7.4663 5.84477 5.95623Z" fill="#0093D1"/>
<path fill-rule="evenodd" clip-rule="evenodd" d="M5.86424 5.97483C7.31246 4.49016 9.66487 4.49016 11.1131 5.97483C12.5641 7.4595 12.5641 9.86671 11.1131 11.3528C9.66487 12.8368 7.31383 12.8368 5.86424 11.3528C4.41464 9.86671 4.41464 7.4595 5.86424 5.97483Z" fill="#0094D2"/>
<path fill-rule="evenodd" clip-rule="evenodd" d="M5.88266 5.99485C7.30678 4.53557 9.61925 4.53557 11.0434 5.99485C12.4702 7.45483 12.4702 9.82114 11.0434 11.2818C9.61925 12.7411 7.30816 12.7411 5.88266 11.2818C4.45785 9.82114 4.45785 7.45483 5.88266 5.99485Z" fill="#0095D3"/>
<path fill-rule="evenodd" clip-rule="evenodd" d="M5.902 6.01344C7.30201 4.57885 9.57454 4.57885 10.9746 6.01344C12.3766 7.44874 12.3766 9.77414 10.9746 11.2101C9.57454 12.644 7.30339 12.644 5.902 11.2101C4.5013 9.77414 4.5013 7.44874 5.902 6.01344Z" fill="#0096D4"/>
<path fill-rule="evenodd" clip-rule="evenodd" d="M5.92066 6.03204C7.29589 4.62213 9.52916 4.62213 10.9044 6.03204C12.2824 7.44195 12.2824 9.72714 10.9044 11.1377C9.52916 12.5469 7.29795 12.5469 5.92066 11.1377C4.54406 9.72714 4.54406 7.44195 5.92066 6.03204Z" fill="#0097D5"/>
<path fill-rule="evenodd" clip-rule="evenodd" d="M5.93994 6.05206C7.29038 4.66754 9.4844 4.66754 10.8348 6.05206C12.1887 7.43728 12.1887 9.68156 10.8348 11.0675C9.4844 12.452 7.29244 12.452 5.93994 11.0675C4.58813 9.68156 4.58813 7.43728 5.93994 6.05206Z" fill="#0098D6"/>
<path fill-rule="evenodd" clip-rule="evenodd" d="M5.95901 6.07065C7.28534 4.71082 9.44011 4.71082 10.7657 6.07065C12.0955 7.43119 12.0955 9.63457 10.7657 10.9958C9.44011 12.3549 7.2874 12.3549 5.95901 10.9958C4.6313 9.63457 4.6313 7.43119 5.95901 6.07065Z" fill="#0098D7"/>
<path fill-rule="evenodd" clip-rule="evenodd" d="M5.97795 6.09067C7.28017 4.75623 9.39432 4.75623 10.6965 6.09067C12.0015 7.42582 12.0015 9.58899 10.6965 10.9248C9.39432 12.2593 7.28155 12.2593 5.97795 10.9248C4.67434 9.58899 4.67434 7.42582 5.97795 6.09067Z" fill="#0099D7"/>
<path fill-rule="evenodd" clip-rule="evenodd" d="M5.99668 6.10927C7.27412 4.79951 9.34969 4.79951 10.6271 6.10927C11.9073 7.41902 11.9073 9.5427 10.6271 10.8532C9.34969 12.1622 7.27618 12.1622 5.99668 10.8532C4.71855 9.5427 4.71855 7.41902 5.99668 6.10927Z" fill="#009AD8"/>
<path fill-rule="evenodd" clip-rule="evenodd" d="M6.01623 6.12929C7.26888 4.84493 9.3052 4.84493 10.5578 6.12929C11.8139 7.41436 11.8139 9.49642 10.5578 10.7829C9.3052 12.0666 7.27094 12.0666 6.01623 10.7829C4.76221 9.49642 4.76221 7.41436 6.01623 6.12929Z" fill="#009BD9"/>
<path fill-rule="evenodd" clip-rule="evenodd" d="M6.03468 6.14788C7.26323 4.88821 9.25961 4.88821 10.4881 6.14788C11.7194 7.40826 11.7194 9.45013 10.4881 10.7112C9.25961 11.9702 7.26529 11.9702 6.03468 10.7112C4.80476 9.45013 4.80476 7.40826 6.03468 6.14788Z" fill="#009CDA"/>
<path fill-rule="evenodd" clip-rule="evenodd" d="M6.05396 6.1679C7.2584 4.93362 9.21484 4.93362 10.4186 6.1679C11.6265 7.40289 11.6265 9.40455 10.4186 10.6402C9.21484 11.8745 7.25978 11.8745 6.05396 10.6402C4.84883 9.40455 4.84883 7.40289 6.05396 6.1679Z" fill="#009CDB"/>
<path fill-rule="evenodd" clip-rule="evenodd" d="M6.07266 6.1865C7.25231 4.9769 9.16949 4.9769 10.3491 6.1865C11.5322 7.3968 11.5322 9.35755 10.3491 10.5686C9.16949 11.7775 7.25437 11.7775 6.07266 10.5686C4.89163 9.35755 4.89163 7.3968 6.07266 6.1865Z" fill="#009DDC"/>
<path fill-rule="evenodd" clip-rule="evenodd" d="M6.092 6.20509C7.24754 5.02018 9.12479 5.02018 10.2803 6.20509C11.4386 7.39071 11.4386 9.31056 10.2803 10.4962C9.12479 11.6804 7.24961 11.6804 6.092 10.4962C4.93507 9.31056 4.93507 7.39071 6.092 6.20509Z" fill="#009EDD"/>
<path fill-rule="evenodd" clip-rule="evenodd" d="M6.11097 6.22511C7.24241 5.06559 9.08041 5.06559 10.2112 6.22511C11.3454 7.38534 11.3454 9.26498 10.2112 10.4259C9.08041 11.5847 7.24448 11.5847 6.11097 10.4259C4.97884 9.26498 4.97884 7.38534 6.11097 6.22511Z" fill="#009FDE"/>
<path fill-rule="evenodd" clip-rule="evenodd" d="M6.12994 6.24371C7.23659 5.10887 9.03464 5.10887 10.1413 6.24371C11.2514 7.37854 11.2514 9.21798 10.1413 10.3542C9.03464 11.4884 7.23866 11.4884 6.12994 10.3542C5.02191 9.21798 5.02191 7.37854 6.12994 6.24371Z" fill="#00A0DF"/>
<path fill-rule="evenodd" clip-rule="evenodd" d="M6.14892 6.26373C7.23078 5.15428 8.98958 5.15428 10.0721 6.26373C11.1567 7.37388 11.1567 9.17241 10.0721 10.2833C8.98958 11.392 7.23284 11.392 6.14892 10.2833C5.06568 9.17241 5.06568 7.37388 6.14892 6.26373Z" fill="#00A1E0"/>
<path fill-rule="evenodd" clip-rule="evenodd" d="M6.16825 6.28232C7.22601 5.19756 8.94556 5.19756 10.0026 6.28232C11.0638 7.36779 11.0638 9.12611 10.0026 10.2116C8.94556 11.2956 7.22808 11.2956 6.16825 10.2116C5.10912 9.12611 5.10912 7.36779 6.16825 6.28232Z" fill="#00A2E1"/>
<path fill-rule="evenodd" clip-rule="evenodd" d="M6.18714 6.30234C7.2201 5.24297 8.89971 5.24297 9.93336 6.30234C10.9698 7.36242 10.9698 9.07984 9.93336 10.1413C8.89971 11.2 7.22217 11.2 6.18714 10.1413C5.15279 9.07984 5.15279 7.36242 6.18714 6.30234Z" fill="#00A3E2"/>
<path fill-rule="evenodd" clip-rule="evenodd" d="M6.20574 6.32094C7.2146 5.28625 8.85496 5.28625 9.86382 6.32094C10.8754 7.35632 10.8754 9.03354 9.86382 10.0689C8.85496 11.1029 7.21667 11.1029 6.20574 10.0689C5.1955 9.03354 5.1955 7.35632 6.20574 6.32094Z" fill="#00A4E4"/>
<path fill-rule="evenodd" clip-rule="evenodd" d="M6.22529 6.33953C7.20936 5.32953 8.80978 5.32953 9.79454 6.33953C10.7821 7.34953 10.7821 8.98584 9.79454 9.99725C8.80978 11.0065 7.21143 11.0065 6.22529 9.99725C5.23915 8.98584 5.23915 7.34953 6.22529 6.33953Z" fill="#00A5E5"/>
<path fill-rule="evenodd" clip-rule="evenodd" d="M6.24396 6.35955C7.20393 5.37494 8.76509 5.37494 9.72506 6.35955C10.6885 7.34486 10.6885 8.94097 9.72506 9.92699C8.76509 10.9109 7.206 10.9109 6.24396 9.92699C5.28261 8.94097 5.28261 7.34486 6.24396 6.35955Z" fill="#00A6E6"/>
<path fill-rule="evenodd" clip-rule="evenodd" d="M6.26324 6.37814C7.19842 5.41822 8.72032 5.41822 9.6555 6.37814C10.5948 7.33807 10.5948 8.89397 9.6555 9.8546C8.72032 10.8138 7.20048 10.8138 6.26324 9.8546C5.32599 8.89397 5.32599 7.33807 6.26324 6.37814Z" fill="#00A7E7"/>
<path fill-rule="evenodd" clip-rule="evenodd" d="M6.28191 6.39816C7.19298 5.46363 8.67495 5.46363 9.58602 6.39816C10.5005 7.3334 10.5005 8.8484 9.58602 9.78434C8.67495 10.7182 7.19505 10.7182 6.28191 9.78434C5.36945 8.8484 5.36945 7.3334 6.28191 6.39816Z" fill="#00A8E9"/>
<path fill-rule="evenodd" clip-rule="evenodd" d="M6.30097 6.41676C7.18794 5.50691 8.62997 5.50691 9.51694 6.41676C10.4067 7.32731 10.4067 8.8014 9.51694 9.71265C8.62997 10.6211 7.19001 10.6211 6.30097 9.71265C5.41262 8.8014 5.41262 7.32731 6.30097 6.41676Z" fill="#00A9EA"/>
<path fill-rule="evenodd" clip-rule="evenodd" d="M6.32025 6.43678C7.18243 5.55232 8.58589 5.55232 9.44807 6.43678C10.3137 7.32194 10.3137 8.75582 9.44807 9.64169C8.58589 10.5261 7.1845 10.5261 6.32025 9.64169C5.45669 8.75582 5.45669 7.32194 6.32025 6.43678Z" fill="#00ABEC"/>
<path fill-rule="evenodd" clip-rule="evenodd" d="M9.37799 6.45537C10.2195 7.31585 10.2195 8.70883 9.37799 9.57C8.53991 10.4291 7.17915 10.4291 6.339 9.57C5.49955 8.70883 5.49955 7.31585 6.339 6.45537C7.17709 5.5956 8.53991 5.5956 9.37799 6.45537Z" fill="#00ADEE"/>
<path fill-rule="evenodd" clip-rule="evenodd" d="M2.63922 4.41315C4.07298 3.49131 9.11248 5.67424 13.4991 10.1656C17.8844 14.6584 20.0172 19.8206 19.1171 21.2883L19.1254 21.2982C20.7623 19.1731 19.5985 13.0503 15.1409 8.48347C10.6847 3.91944 4.51027 2.85936 2.62958 4.40257L2.63922 4.41315Z" fill="#FEFEFE"/>
</svg>
