<svg width="64" height="64" viewBox="0 0 64 64" fill="none" xmlns="http://www.w3.org/2000/svg">
<path d="M21.7602 12.7272V8.46747C21.7602 6.70124 23.2535 5.35059 24.9602 5.35059H39.0402C40.7469 5.35059 42.2402 6.80513 42.2402 8.46747V12.7272" stroke="white" stroke-width="1.5" stroke-miterlimit="10" stroke-linejoin="round"/>
<path d="M62.72 38.4937V55.5326C62.72 57.1949 61.2267 58.6495 59.52 58.6495H4.58672C2.88005 58.6495 1.38672 57.1949 1.38672 55.5326V38.4937" stroke="white" stroke-width="1.5" stroke-miterlimit="10" stroke-linejoin="round"/>
<path d="M36.0536 26.9609H28.0536V39.948H36.0536V26.9609Z" stroke="white" stroke-width="1.5" stroke-miterlimit="10"/>
<path d="M36.0535 33.6105H62.7202V20.4157C62.7202 18.7534 61.2269 17.2988 59.5202 17.2988H4.48021C2.77355 17.2988 1.28021 18.7534 1.28021 20.4157V33.6105H27.9469" stroke="white" stroke-width="1.5" stroke-miterlimit="10"/>
</svg>
