<svg width="80" height="80" viewBox="0 0 80 80" fill="none" xmlns="http://www.w3.org/2000/svg">
<path d="M20.4386 40V39.5H19.9386H9.5C6.00265 39.5 3 36.3255 3 32.4736V10.0264C3 6.17448 6.00265 3 9.5 3H30.3772C33.8657 3 36.8803 6.16588 37 10.1659V32.6056C37 42.2397 33.0335 51.1215 27.9953 58.7382C23.3773 65.7196 17.886 71.5998 13.7805 75.9959C13.5358 76.258 13.296 76.5147 13.0616 76.7661L6.74117 69.9703C7.03179 69.6543 7.34546 69.3195 7.67777 68.9649C12.2753 64.0579 20.4386 55.3451 20.4386 40Z" stroke="#009DE8"/>
<path d="M60.4386 40V39.5H59.9386H49.5C46.0026 39.5 43 36.3255 43 32.4736V10.0264C43 6.17448 46.0026 3 49.5 3H70.3772C73.8657 3 76.8803 6.16588 77 10.1659V32.6056C77 42.2397 73.0335 51.1215 67.9953 58.7382C63.3773 65.7196 57.886 71.5998 53.7805 75.9959C53.5358 76.258 53.296 76.5147 53.0616 76.7661L46.7412 69.9703C47.0318 69.6543 47.3455 69.3195 47.6778 68.9649C52.2753 64.0579 60.4386 55.3451 60.4386 40Z" stroke="#009DE8"/>
</svg>
