<svg width="64" height="64" viewBox="0 0 64 64" fill="none" xmlns="http://www.w3.org/2000/svg">
<path d="M54.7932 51.2559L53.5862 37.3955C52.8435 32.4652 46.9015 31.2559 46.9015 31.2559L40.2168 30.1396" stroke="white" stroke-width="1.5" stroke-miterlimit="10" stroke-linecap="round" stroke-linejoin="round"/>
<path d="M32.2321 1.11621C22.5764 1.11621 22.0193 6.97668 22.7621 14.0464C23.412 21.2092 27.8685 26.9767 32.2321 26.9767C36.5957 26.9767 41.0522 21.1162 41.7021 14.0464C42.4449 6.97668 41.8878 1.11621 32.2321 1.11621Z" stroke="white" stroke-width="1.5" stroke-miterlimit="10" stroke-linejoin="round"/>
<path d="M35.1103 6.88379C35.1103 6.88379 34.1818 11.4419 27.4043 11.721" stroke="white" stroke-width="1.5" stroke-miterlimit="10" stroke-linecap="round" stroke-linejoin="round"/>
<path d="M34.2744 8.83691C34.2744 8.83691 37.6167 11.0695 41.7018 12.1858" stroke="white" stroke-width="1.5" stroke-miterlimit="10" stroke-linecap="round" stroke-linejoin="round"/>
<path d="M44.8588 30.9766L19.0484 62.6975" stroke="white" stroke-width="1.5" stroke-miterlimit="10" stroke-linecap="round" stroke-linejoin="round"/>
<path d="M49.0369 32.0928L27.9614 62.6974" stroke="white" stroke-width="1.5" stroke-miterlimit="10" stroke-linecap="round" stroke-linejoin="round"/>
<path d="M41.238 53.8604L35.1104 62.6976" stroke="white" stroke-width="1.5" stroke-miterlimit="10" stroke-linecap="round" stroke-linejoin="round"/>
<path d="M26.5688 53.1162H19.4199" stroke="white" stroke-width="1.5" stroke-miterlimit="10" stroke-linecap="round" stroke-linejoin="round"/>
<path d="M35.946 33.5813C34.9248 34.0464 33.7178 34.2324 32.5108 34.2324C29.1685 34.2324 26.2903 32.465 25.1762 30.0464L17.6559 31.2557C17.6559 31.2557 11.7139 32.465 10.9712 37.3952C10.9712 37.3952 9.39285 49.9534 9.20716 55.7208C9.02147 61.4882 11.6211 62.8836 13.0137 62.8836C14.1279 62.8836 39.4741 62.8836 39.4741 62.8836C39.4741 62.8836 43.1878 62.6045 43.1878 59.1627V56.8371C43.1878 54.7906 41.5166 53.1161 39.4741 53.1161H34.9248" stroke="white" stroke-width="1.5" stroke-miterlimit="10" stroke-linecap="round" stroke-linejoin="round"/>
</svg>
