<svg width="64" height="64" viewBox="0 0 64 64" fill="none" xmlns="http://www.w3.org/2000/svg">
<path d="M28.8566 3.00146C25.428 3.77605 20.0947 6.48709 20.0947 15.4916C20.0947 16.6535 19.809 18.009 18.3804 18.6868" stroke="white" stroke-width="1.5" stroke-miterlimit="10" stroke-linecap="round" stroke-linejoin="round"/>
<path d="M35.0469 3.00146C38.4755 3.77605 43.8088 6.48709 43.8088 15.4916C43.8088 16.6535 44.0946 18.009 45.5231 18.6868" stroke="white" stroke-width="1.5" stroke-miterlimit="10" stroke-linecap="round" stroke-linejoin="round"/>
<path d="M28.3805 15.5882L29.1424 1.16162H34.7615L35.5234 15.5882" stroke="white" stroke-width="1.5" stroke-miterlimit="10" stroke-linejoin="round"/>
<path d="M31.9996 41.9238V61.0948" stroke="white" stroke-width="1.5" stroke-miterlimit="10" stroke-linecap="round" stroke-linejoin="round"/>
<path d="M31.9996 58.1904V63.903" stroke="white" stroke-width="1.5" stroke-miterlimit="10" stroke-linejoin="round"/>
<path d="M44.3809 52.5747H50.2856" stroke="white" stroke-width="1.5" stroke-miterlimit="10" stroke-linecap="round" stroke-linejoin="round"/>
<path d="M42.9522 19.8486C43.0475 20.3327 43.0475 20.9137 43.0475 21.3978C43.0475 28.8532 37.9046 36.1149 31.9998 36.1149C26.0951 36.1149 20.9522 28.8532 20.9522 21.3978C20.9522 20.9137 20.9522 20.4296 21.0474 19.9455" stroke="white" stroke-width="1.5" stroke-miterlimit="10" stroke-linecap="round"/>
<path d="M46.8569 18.2993C42.8569 20.0421 37.7141 21.0104 31.9998 21.0104C26.2855 21.0104 21.1426 20.0421 17.1426 18.2993" stroke="white" stroke-width="1.5" stroke-miterlimit="10" stroke-linecap="round" stroke-linejoin="round"/>
<path d="M7.14264 63.903V50.9287C7.14264 42.021 15.8093 40.4718 15.8093 40.4718L23.5236 39.4067L26.2855 63.903" stroke="white" stroke-width="1.5" stroke-miterlimit="10" stroke-linejoin="round"/>
<path d="M56.7616 63.903V50.9287C56.7616 42.021 48.0949 40.4718 48.0949 40.4718L40.3806 39.4067L37.6187 63.903" stroke="white" stroke-width="1.5" stroke-miterlimit="10" stroke-linejoin="round"/>
</svg>
