<svg width="42" height="42" viewBox="0 0 42 42" fill="none" xmlns="http://www.w3.org/2000/svg">
<path fill-rule="evenodd" clip-rule="evenodd" d="M11.3537 10.6464C11.1584 10.4511 10.8418 10.4511 10.6466 10.6464C10.4513 10.8417 10.4513 11.1582 10.6466 11.3535L20.293 20.9999L10.6465 30.6464C10.4513 30.8417 10.4513 31.1583 10.6465 31.3535C10.8418 31.5488 11.1584 31.5488 11.3536 31.3535L21.0001 21.707L30.6466 31.3535C30.8418 31.5488 31.1584 31.5488 31.3537 31.3535C31.5489 31.1582 31.5489 30.8417 31.3537 30.6464L21.7072 20.9999L31.3536 11.3535C31.5489 11.1583 31.5489 10.8417 31.3536 10.6464C31.1584 10.4512 30.8418 10.4512 30.6465 10.6464L21.0001 20.2928L11.3537 10.6464Z" fill="#009DE8"/>
</svg>
