<svg width="64" height="64" viewBox="0 0 64 64" fill="none" xmlns="http://www.w3.org/2000/svg">
<path d="M45.3799 15.8207V5.17395C45.3799 2.98489 43.5485 1.19385 41.31 1.19385H12.6168L1.22095 10.8456V54.7262C1.22095 56.9152 3.05243 58.7063 5.2909 58.7063H41.2082C43.4467 58.7063 45.2782 56.9152 45.2782 54.7262V52.2386" stroke="white" stroke-width="1.5" stroke-miterlimit="10"/>
<path d="M16.2798 1.98975V14.2286H8.64868" stroke="white" stroke-width="1.5" stroke-miterlimit="10"/>
<path d="M48.6358 47.8606C56.3906 47.8606 62.6772 41.7129 62.6772 34.1293C62.6772 26.5457 56.3906 20.3979 48.6358 20.3979C40.881 20.3979 34.5945 26.5457 34.5945 34.1293C34.5945 41.7129 40.881 47.8606 48.6358 47.8606Z" stroke="white" stroke-width="1.5" stroke-miterlimit="10"/>
<path d="M42.2258 33.5321L47.9237 38.1092L55.3514 28.8555" stroke="white" stroke-width="1.5" stroke-miterlimit="10"/>
<path d="M11.1923 29.6519H10.2766V30.5474H11.1923V29.6519Z" stroke="white" stroke-width="1.5" stroke-miterlimit="10"/>
<path d="M16.7884 30.0498H30.728" stroke="white" stroke-width="1.5" stroke-miterlimit="10"/>
<path d="M11.1923 37.6118H10.2766V38.5073H11.1923V37.6118Z" stroke="white" stroke-width="1.5" stroke-miterlimit="10"/>
<path d="M16.7884 38.0098H30.8297" stroke="white" stroke-width="1.5" stroke-miterlimit="10"/>
<path d="M11.1923 45.5718H10.2766V46.4673H11.1923V45.5718Z" stroke="white" stroke-width="1.5" stroke-miterlimit="10"/>
<path d="M16.7884 46.0693H34.5944" stroke="white" stroke-width="1.5" stroke-miterlimit="10"/>
</svg>
